# xmcd
#
# Track frame offsets: 
#        150
#        15600
#        33326
#        49881
#        68726
#        89062
#        103896
#        121126
#        137979
#        155513
#        168233
#        183461
#        195587
#        212355
#
# Disc length: 3254 seconds
#
# Revision: 0
# Processed by: cddbd v1.5.2PL0 Copyright (c) Steve Scherf et al.
# Submitted via: ExactAudioCopyFreeDBPlugin 1.0
#
DISCID=c10cb40e
DTITLE=Christian Dozzler and Robin Banks - Livin' Life
DYEAR=2009
DGENRE=Blues
TTITLE0=Cocktail Or Beer
TTITLE1=Livin' Life
TTITLE2=Walking
TTITLE3=Roxanne
TTITLE4=Sister
TTITLE5=Into The Night
TTITLE6=No More
TTITLE7=Out Of The Blue
TTITLE8=Last Time I Saw Texas
TTITLE9=If You Wanna Be My Gal
TTITLE10=Everybody Let's Dance
TTITLE11=For Pete's Sakes
TTITLE12=I Just Want My Legs Around You
TTITLE13=Story Of The Blues
EXTD=
EXTT0=
EXTT1=
EXTT2=
EXTT3=
EXTT4=
EXTT5=
EXTT6=
EXTT7=
EXTT8=
EXTT9=
EXTT10=
EXTT11=
EXTT12=
EXTT13=
PLAYORDER=
